<?xml version="1.0" encoding="UTF-8" standalone="no"?>
<!-- Generator: Adobe Illustrator 16.0.4, SVG Export Plug-In . SVG Version: 6.00 Build 0)  -->

<svg
   xmlns:dc="http://purl.org/dc/elements/1.1/"
   xmlns:cc="http://creativecommons.org/ns#"
   xmlns:rdf="http://www.w3.org/1999/02/22-rdf-syntax-ns#"
   xmlns:svg="http://www.w3.org/2000/svg"
   xmlns="http://www.w3.org/2000/svg"
   xmlns:sodipodi="http://sodipodi.sourceforge.net/DTD/sodipodi-0.dtd"
   xmlns:inkscape="http://www.inkscape.org/namespaces/inkscape"
   version="1.1"
   id="Capa_1"
   x="0px"
   y="0px"
   width="56.299999"
   height="38.799999"
   viewBox="0 0 56.299997 38.799998"
   xml:space="preserve"
   inkscape:version="0.48.5 r10040"
   sodipodi:docname="cheese.svg"
   inkscape:export-filename="D:\Downloads\cheese6.png"
   inkscape:export-xdpi="589"
   inkscape:export-ydpi="589"><metadata
   id="metadata39"><rdf:RDF><cc:Work
       rdf:about=""><dc:format>image/svg+xml</dc:format><dc:type
         rdf:resource="http://purl.org/dc/dcmitype/StillImage" /><dc:title></dc:title></cc:Work></rdf:RDF></metadata><defs
   id="defs37" /><sodipodi:namedview
   pagecolor="#ffffff"
   bordercolor="#666666"
   borderopacity="1"
   objecttolerance="10"
   gridtolerance="10"
   guidetolerance="10"
   inkscape:pageopacity="0"
   inkscape:pageshadow="2"
   inkscape:window-width="1920"
   inkscape:window-height="1003"
   id="namedview35"
   showgrid="false"
   inkscape:zoom="9.321707"
   inkscape:cx="-6.1811274"
   inkscape:cy="34.478694"
   inkscape:window-x="-9"
   inkscape:window-y="-9"
   inkscape:window-maximized="1"
   inkscape:current-layer="Capa_1"><sodipodi:guide
     position="0,0"
     orientation="0,53.299999"
     id="guide3003" /><sodipodi:guide
     position="53.299999,0"
     orientation="-37.799999,0"
     id="guide3005" /><sodipodi:guide
     position="53.299999,37.799999"
     orientation="0,-53.299999"
     id="guide3007" /><sodipodi:guide
     position="0,37.799999"
     orientation="37.799999,0"
     id="guide3009" /></sodipodi:namedview>
<rect
   style="fill:#18bc9c;fill-opacity:1;stroke:none"
   id="rect3779"
   width="63.999996"
   height="63.999996"
   x="-1.9309763"
   y="-14.118079"
   ry="6.3999996"
   inkscape:export-filename="C:\Users\Maciej\Documents\Visual Studio 2013\Projects\gitcheese.client\resources\logo16.png"
   inkscape:export-xdpi="589"
   inkscape:export-ydpi="589" /><path
   d="m 24.14999,18.971394 c -0.573866,0.08108 -0.711466,0.93334 -1.066666,0.88854 -0.3552,-0.0448 -1.111466,0.17812 -1.5552,1.378132 -0.4448,1.200001 -0.178132,2.088529 1.021868,2.177069 1.2,0.0896 2.533332,-0.84374 2.978132,-1.866669 0.443734,-1.021872 0.488534,-2.843732 -1.378134,-2.577072 z m 0.221868,2.666672 c -0.533334,0.577069 -0.8448,0.933329 -1.466666,0.755201 -0.621868,-0.17812 -0.4448,-1.021873 -0.08854,-1.421873 0.356268,-0.4 0.891734,-0.736 1.2448,-0.8 0.488534,-0.0896 0.843732,0.88854 0.3104,1.466672 z m 2.888534,1.910401 c -0.669868,0.36908 -1.866668,3.111468 -1.111468,4.178136 0.7552,1.06666 2.311468,0.933332 3.6448,0 1.333333,-0.933336 2.221866,-3.600008 1.644799,-4.488536 -0.57813,-0.8896 -2.399999,-0.666672 -4.178131,0.3104 z m 3.244798,1.911468 c -0.133332,0.8 -0.933332,1.288532 -1.955198,1.9552 -1.021868,0.666668 -1.421868,-0.443732 -1.466668,-1.1104 -0.0448,-0.666668 0.578134,-1.77814 1.2448,-1.866668 0.666668,-0.0896 0.670934,-0.12588 1.021868,-0.31148 0.843734,-0.4448 1.288534,0.533336 1.155198,1.333336 z M 27.571859,10.081794 c 1.2,0 3.066668,-1.3770599 3.866666,-2.1770599 0.800002,-0.8 0.311468,-2.8000041 -2.488531,-1.911472 -0.834135,0.26452 -2.266669,1.378132 -2.755201,2.311472 -0.4896,0.9333321 0.17706,1.7770599 1.377066,1.7770599 z m 0.4448,-2.1333279 c 0.311468,-0.4 0.8864,-0.016 1.1552,-0.17708 1.111468,-0.666668 0.888532,0.17708 0.17814,0.621864 -0.7104,0.4448 -0.621867,0.711468 -1.421867,0.621868 -0.801066,-0.08852 -0.222932,-0.666668 0.08854,-1.066668 z m 5.377066,3.5562679 c -0.628267,0.15252 -1.821864,0.933332 -2.0448,2.66666 -0.222932,1.73334 0.221868,2.44374 1.1552,3.021872 0.933333,0.578128 2.444799,0.31148 3.555199,-0.666672 1.111467,-0.978128 1.911467,-2.488528 1.466667,-3.778128 -0.442667,-1.288532 -2.665598,-1.6 -4.132266,-1.243732 z m 2.533332,3.42186 c -0.666666,0.88854 -1.5552,1.33334 -2.444799,1.28854 -0.888533,-0.04372 -1.1552,-0.7104 -0.933333,-2.08854 0.221868,-1.378128 0.711466,-1.6 1.511466,-1.688528 0,0 1.066666,0.08852 1.6448,0.3104 0.578133,0.22292 0.888533,1.2896 0.221868,2.178128 z m 3.778134,2.621872 c -0.6272,0.2272 -1.688533,1.6 -1.1552,2.8896 0.533339,1.288528 1.2,1.688529 2.711467,1.288528 1.511469,-0.4 2.355202,-1.288528 2.400002,-2.31146 0.04373,-1.021868 -0.756266,-3.021868 -3.956266,-1.866668 z m 1.733336,2.666668 c -0.666669,0.26668 -0.8448,0.26668 -1.466669,-0.3104 -0.621867,-0.57814 0.546133,-1.556268 1.066669,-1.556268 0.311468,0 0.844797,0.0448 1.244797,0.31148 0.4,0.26668 -0.178132,1.288532 -0.844797,1.5552 z m 5.533863,-5.089068 c -1.199999,-4 -1.466666,-5.1327998 -1.866666,-5.4666718 -0.4,-0.33388 -1.000533,-0.06612 -1.866666,0.6666718 -0.866134,0.7328 -1.132798,-0.13332 -1.666134,-1.2671999 -0.533333,-1.133872 1.000534,-1.399472 2.4,-1.932804 C 45.372393,6.5927301 44.173456,4.126594 43.839592,2.92553 43.505724,1.7244619 43.70626,1.2593939 41.572928,0.45939391 39.439592,-0.34060611 32.638529,-1.4734061 31.105729,-1.4734061 c -1.532801,0 -2.933333,1.26719999 -4.733867,3.400536 -1.800533,2.1333321 -4.999467,5.4656002 -5.932799,6.4661362 -0.933334,1.0005281 -0.06613,1.6000001 0.266668,2.2666679 0.3328,0.66666 0.533334,1.6 -0.599465,2.99946 -1.132799,1.399472 -2.600535,0.06612 -3.466667,-0.4 -0.866132,-0.466132 -2.267733,1.2672 -3.400532,2.93334 0,0 -0.8,1.2 -1.466667,2.133332 -0.666666,0.933328 1.800532,6.466129 2.399999,7.133869 0.599467,0.667732 0.8,0.533332 2.333868,-0.20052 1.533864,-0.733868 1.533864,-1.066668 2.666664,0.4 1.1328,1.466664 -0.8,2.533332 -1.866664,3.2 -1.066668,0.666664 0.6656,5.133864 1.799464,7.000532 1.133867,1.866664 3.466668,0.3328 6.466134,-1.2672 2.999466,-1.6 6.199468,-3.400532 7.532801,-4.200532 1.33333,-0.8 0.4672,-1.666136 1.00053,-2.8 0.533336,-1.133868 2.133336,-0.733868 2.666669,-0.13332 0.533334,0.600536 1.733331,-0.13332 5.466667,-2.4 3.733334,-2.266664 5.132802,-2.999464 6.13333,-3.600001 1.000536,-0.600532 -0.19948,-2.3328 -1.399464,-6.3328 z m -1.133864,5.866668 c -1.267202,0.73386 -3.733335,2.133333 -5.199999,2.933333 -1.466669,0.8 -2.3328,1.400528 -3.1328,1.2672 -0.800003,-0.13332 -2.19947,-0.599472 -3.733336,0.4 -1.533866,0.999468 -1.333333,3.133868 -2.333866,3.667196 -1.000534,0.53334 -5.9328,2.8672 -7.999999,3.799472 -2.0672,0.932268 -2.933333,1.2672 -3.333333,0.3328 -0.4,-0.9344 -1.2672,-2.933332 -0.666667,-3.5328 0.600535,-0.599472 2.533333,-2.266668 1.866667,-4.4 -0.666667,-2.13334 -2.933333,-2.666668 -4.4672,-2.13334 -0.901332,0.3136 -1.2,0.4672 -1.666132,-0.4 -0.466133,-0.8672 -2.0672,-3.133861 -1.200001,-4.200529 0.867201,-1.066672 2.199466,-3.733332 2.933333,-3.266132 0.733867,0.4672 2.600533,0.66666 3.866666,-0.06612 1.266134,-0.7328 2.466135,-2.4 2.199467,-3.799468 -0.266669,-1.399468 -0.599467,-2.3338678 -0.13334,-2.7999999 0.466133,-0.466132 3.733331,-3.6672041 5.1328,-5.2000041 1.399466,-1.5328 1.533866,-3.13386809 3.866666,-2.86720008 2.332799,0.26668 7.733332,1.26720008 8.533332,1.66613208 0.8,0.39892 1.2672,0.53334 1.2672,1.2672 0,0.733868 0.933334,1.466668 0.4,1.866668 -0.533333,0.4000001 -1.9328,0.9333361 -2.199464,2.3338721 -0.266668,1.4005321 -0.200532,2.9994639 0.866131,3.7333319 1.066667,0.733868 2.133333,1.1328 2.533333,1.000532 0.4,-0.13228 0.8,-0.3328 1.000534,0.20052 0.200532,0.533332 1.1328,4 1.666132,5.466664 0.533336,1.466668 1.201068,1.997868 -0.06612,2.730668 z M 33.705191,8.8817941 c -2.7552,2.1333399 -7.244798,5.0229399 -9.155199,6.3999999 -1.911467,1.37814 -5.378131,2.62294 -7.155199,3.2 -1.778132,0.57814 -1.911467,1.2448 -1.688532,1.6 0.221868,0.35628 0.910932,-0.36372 2.044799,-0.57706 2.355201,-0.4448 6.578132,-3.066668 10.221865,-5.33334 3.6448,-2.26666 5.778133,-4.1781278 8.088532,-5.9562599 2.31147,-1.777072 2.355201,-1.73334 2.000001,-2.177072 -0.356268,-0.4448 -1.601067,0.7104 -4.356267,2.843732 z"
   id="path3"
   inkscape:connector-curvature="0"
   style="fill:#ffffff"
   inkscape:export-filename="C:\Users\Maciej\Documents\Visual Studio 2013\Projects\gitcheese.client\resources\logo16.png"
   inkscape:export-xdpi="589"
   inkscape:export-ydpi="589" />
<g
   id="g5"
   transform="matrix(1.0666666,0,0,1.0666666,0.12873167,-0.12971411)"
   inkscape:export-filename="C:\Users\Maciej\Documents\Visual Studio 2013\Projects\gitcheese.client\resources\logo16.png"
   inkscape:export-xdpi="589"
   inkscape:export-ydpi="589">
</g>
<g
   id="g7"
   transform="matrix(1.0666666,0,0,1.0666666,0.12873167,-0.12971411)"
   inkscape:export-filename="C:\Users\Maciej\Documents\Visual Studio 2013\Projects\gitcheese.client\resources\logo16.png"
   inkscape:export-xdpi="589"
   inkscape:export-ydpi="589">
</g>
<g
   id="g9"
   transform="matrix(1.0666666,0,0,1.0666666,0.12873167,-0.12971411)"
   inkscape:export-filename="C:\Users\Maciej\Documents\Visual Studio 2013\Projects\gitcheese.client\resources\logo16.png"
   inkscape:export-xdpi="589"
   inkscape:export-ydpi="589">
</g>
<g
   id="g11"
   transform="matrix(1.0666666,0,0,1.0666666,0.12873167,-0.12971411)"
   inkscape:export-filename="C:\Users\Maciej\Documents\Visual Studio 2013\Projects\gitcheese.client\resources\logo16.png"
   inkscape:export-xdpi="589"
   inkscape:export-ydpi="589">
</g>
<g
   id="g13"
   transform="matrix(1.0666666,0,0,1.0666666,0.12873167,-0.12971411)"
   inkscape:export-filename="C:\Users\Maciej\Documents\Visual Studio 2013\Projects\gitcheese.client\resources\logo16.png"
   inkscape:export-xdpi="589"
   inkscape:export-ydpi="589">
</g>
<g
   id="g15"
   transform="matrix(1.0666666,0,0,1.0666666,0.12873167,-0.12971411)"
   inkscape:export-filename="C:\Users\Maciej\Documents\Visual Studio 2013\Projects\gitcheese.client\resources\logo16.png"
   inkscape:export-xdpi="589"
   inkscape:export-ydpi="589">
</g>
<g
   id="g17"
   transform="matrix(1.0666666,0,0,1.0666666,0.12873167,-0.12971411)"
   inkscape:export-filename="C:\Users\Maciej\Documents\Visual Studio 2013\Projects\gitcheese.client\resources\logo16.png"
   inkscape:export-xdpi="589"
   inkscape:export-ydpi="589">
</g>
<g
   id="g19"
   transform="matrix(1.0666666,0,0,1.0666666,0.12873167,-0.12971411)"
   inkscape:export-filename="C:\Users\Maciej\Documents\Visual Studio 2013\Projects\gitcheese.client\resources\logo16.png"
   inkscape:export-xdpi="589"
   inkscape:export-ydpi="589">
</g>
<g
   id="g21"
   transform="matrix(1.0666666,0,0,1.0666666,0.12873167,-0.12971411)"
   inkscape:export-filename="C:\Users\Maciej\Documents\Visual Studio 2013\Projects\gitcheese.client\resources\logo16.png"
   inkscape:export-xdpi="589"
   inkscape:export-ydpi="589">
</g>
<g
   id="g23"
   transform="matrix(1.0666666,0,0,1.0666666,0.12873167,-0.12971411)"
   inkscape:export-filename="C:\Users\Maciej\Documents\Visual Studio 2013\Projects\gitcheese.client\resources\logo16.png"
   inkscape:export-xdpi="589"
   inkscape:export-ydpi="589">
</g>
<g
   id="g25"
   transform="matrix(1.0666666,0,0,1.0666666,0.12873167,-0.12971411)"
   inkscape:export-filename="C:\Users\Maciej\Documents\Visual Studio 2013\Projects\gitcheese.client\resources\logo16.png"
   inkscape:export-xdpi="589"
   inkscape:export-ydpi="589">
</g>
<g
   id="g27"
   transform="matrix(1.0666666,0,0,1.0666666,0.12873167,-0.12971411)"
   inkscape:export-filename="C:\Users\Maciej\Documents\Visual Studio 2013\Projects\gitcheese.client\resources\logo16.png"
   inkscape:export-xdpi="589"
   inkscape:export-ydpi="589">
</g>
<g
   id="g29"
   transform="matrix(1.0666666,0,0,1.0666666,0.12873167,-0.12971411)"
   inkscape:export-filename="C:\Users\Maciej\Documents\Visual Studio 2013\Projects\gitcheese.client\resources\logo16.png"
   inkscape:export-xdpi="589"
   inkscape:export-ydpi="589">
</g>
<g
   id="g31"
   transform="matrix(1.0666666,0,0,1.0666666,0.12873167,-0.12971411)"
   inkscape:export-filename="C:\Users\Maciej\Documents\Visual Studio 2013\Projects\gitcheese.client\resources\logo16.png"
   inkscape:export-xdpi="589"
   inkscape:export-ydpi="589">
</g>
<g
   id="g33"
   transform="matrix(1.0666666,0,0,1.0666666,0.12873167,-0.12971411)"
   inkscape:export-filename="C:\Users\Maciej\Documents\Visual Studio 2013\Projects\gitcheese.client\resources\logo16.png"
   inkscape:export-xdpi="589"
   inkscape:export-ydpi="589">
</g>
<flowRoot
   xml:space="preserve"
   id="flowRoot3016"
   style="font-size:40px;font-style:normal;font-variant:normal;font-weight:bold;font-stretch:normal;line-height:125%;letter-spacing:0px;word-spacing:0px;fill:#ffffff;fill-opacity:1;stroke:none;font-family:Arial;-inkscape-font-specification:Arial Bold"
   transform="matrix(1.0666666,0,0,1.0666666,23.050808,-5.7184623)"
   inkscape:export-filename="C:\Users\Maciej\Documents\Visual Studio 2013\Projects\gitcheese.client\resources\logo16.png"
   inkscape:export-xdpi="589"
   inkscape:export-ydpi="589"><flowRegion
     id="flowRegion3018"><rect
       id="rect3020"
       width="16.688305"
       height="41.872475"
       x="-22.301645"
       y="-1.3654069"
       style="fill:#ffffff" /></flowRegion><flowPara
     id="flowPara3022">{</flowPara></flowRoot><text
   xml:space="preserve"
   style="font-size:42.66666412px;font-style:normal;font-variant:normal;font-weight:bold;font-stretch:normal;line-height:125%;letter-spacing:0px;word-spacing:0px;fill:#ffffff;fill-opacity:1;stroke:none;font-family:Arial;-inkscape-font-specification:Arial Bold"
   x="44.626114"
   y="28.484015"
   id="text3024"
   sodipodi:linespacing="125%"
   inkscape:export-filename="C:\Users\Maciej\Documents\Visual Studio 2013\Projects\gitcheese.client\resources\logo16.png"
   inkscape:export-xdpi="589"
   inkscape:export-ydpi="589"><tspan
     sodipodi:role="line"
     id="tspan3026"
     x="44.626114"
     y="28.484015">}</tspan></text>


</svg>