<?xml version="1.0" encoding="UTF-8" standalone="no"?>
<!-- Generator: Adobe Illustrator 16.0.4, SVG Export Plug-In . SVG Version: 6.00 Build 0)  -->

<svg
   xmlns:dc="http://purl.org/dc/elements/1.1/"
   xmlns:cc="http://creativecommons.org/ns#"
   xmlns:rdf="http://www.w3.org/1999/02/22-rdf-syntax-ns#"
   xmlns:svg="http://www.w3.org/2000/svg"
   xmlns="http://www.w3.org/2000/svg"
   xmlns:sodipodi="http://sodipodi.sourceforge.net/DTD/sodipodi-0.dtd"
   xmlns:inkscape="http://www.inkscape.org/namespaces/inkscape"
   version="1.1"
   id="Capa_1"
   x="0px"
   y="0px"
   width="56.299999"
   height="38.799999"
   viewBox="0 0 56.299997 38.799998"
   xml:space="preserve"
   inkscape:version="0.48.5 r10040"
   sodipodi:docname="cheese6.svg"
   inkscape:export-filename="D:\Downloads\cheese6.png"
   inkscape:export-xdpi="589"
   inkscape:export-ydpi="589"><metadata
   id="metadata39"><rdf:RDF><cc:Work
       rdf:about=""><dc:format>image/svg+xml</dc:format><dc:type
         rdf:resource="http://purl.org/dc/dcmitype/StillImage" /><dc:title></dc:title></cc:Work></rdf:RDF></metadata><defs
   id="defs37" /><sodipodi:namedview
   pagecolor="#ffffff"
   bordercolor="#666666"
   borderopacity="1"
   objecttolerance="10"
   gridtolerance="10"
   guidetolerance="10"
   inkscape:pageopacity="0"
   inkscape:pageshadow="2"
   inkscape:window-width="1920"
   inkscape:window-height="1003"
   id="namedview35"
   showgrid="false"
   inkscape:zoom="18.643414"
   inkscape:cx="29.597494"
   inkscape:cy="21.575384"
   inkscape:window-x="-9"
   inkscape:window-y="-9"
   inkscape:window-maximized="1"
   inkscape:current-layer="Capa_1"><sodipodi:guide
     position="0,0"
     orientation="0,53.299999"
     id="guide3003" /><sodipodi:guide
     position="53.299999,0"
     orientation="-37.799999,0"
     id="guide3005" /><sodipodi:guide
     position="53.299999,37.799999"
     orientation="0,-53.299999"
     id="guide3007" /><sodipodi:guide
     position="0,37.799999"
     orientation="37.799999,0"
     id="guide3009" /></sodipodi:namedview>
<path
   d="m 22.519932,20.903302 c -0.538,0.076 -0.667,0.875 -1,0.833 -0.333,-0.042 -1.042,0.167 -1.458,1.292 -0.417,1.125 -0.167,1.958 0.958,2.041 1.125,0.084 2.375,-0.791 2.792,-1.75 0.416,-0.958 0.458,-2.666 -1.292,-2.416 z m 0.208,2.5 c -0.5,0.541 -0.792,0.875 -1.375,0.708 -0.583,-0.167 -0.417,-0.958 -0.083,-1.333 0.334,-0.375 0.836,-0.69 1.167,-0.75 0.458,-0.084 0.791,0.833 0.291,1.375 z m 2.708,1.791 c -0.628,0.346 -1.75,2.917 -1.042,3.917 0.708,1 2.167,0.875 3.417,0 1.25,-0.875 2.083,-3.375 1.542,-4.208 -0.542,-0.834 -2.25,-0.625 -3.917,0.291 z m 3.042,1.792 c -0.125,0.75 -0.875,1.208 -1.833,1.833 -0.958,0.625 -1.333,-0.416 -1.375,-1.041 -0.042,-0.625 0.542,-1.667 1.167,-1.75 0.625,-0.084 0.629,-0.118 0.958,-0.292 0.791,-0.417 1.208,0.5 1.083,1.25 z m -2.75,-14.417 c 1.125,0 2.875,-1.291 3.625,-2.041 0.75,-0.7500017 0.292,-2.6250021 -2.333,-1.7920021 -0.782,0.248 -2.125,1.2920001 -2.583,2.1670021 -0.459,0.875 0.166,1.666 1.291,1.666 z m 0.417,-2 c 0.292,-0.375002 0.831,-0.015 1.083,-0.166 1.042,-0.6250017 0.833,0.166 0.167,0.583 -0.666,0.417 -0.583,0.667 -1.333,0.583 -0.751,-0.083 -0.209,-0.625 0.083,-1 z m 5.041,3.334 c -0.589,0.143 -1.708,0.875 -1.917,2.5 -0.209,1.625 0.208,2.291 1.083,2.833 0.875,0.542 2.292,0.292 3.333,-0.625 1.042,-0.917 1.792,-2.333 1.375,-3.542 -0.415,-1.208 -2.499,-1.5 -3.874,-1.166 z m 2.375,3.208 c -0.625,0.833 -1.458,1.25 -2.292,1.208 -0.833,-0.041 -1.083,-0.666 -0.875,-1.958 0.208,-1.292 0.667,-1.5 1.417,-1.583 0,0 1,0.083 1.542,0.291 0.542,0.209 0.833,1.209 0.208,2.042 z m 3.542,2.458 c -0.588,0.213 -1.583,1.5 -1.083,2.709 0.5,1.208 1.125,1.583 2.542,1.208 1.417,-0.375 2.208,-1.208 2.25,-2.167 0.041,-0.958 -0.709,-2.833 -3.709,-1.75 z m 1.625,2.5 c -0.625,0.25 -0.792,0.25 -1.375,-0.291 -0.583,-0.542 0.512,-1.459 1,-1.459 0.292,0 0.792,0.042 1.167,0.292 0.375,0.25 -0.167,1.208 -0.792,1.458 z m 5.188,-4.771 c -1.125,-3.75 -1.375,-4.812 -1.75,-5.125 -0.375,-0.313 -0.938,-0.062 -1.75,0.625 -0.812,0.687 -1.062,-0.125 -1.562,-1.188 -0.5,-1.063 0.938,-1.312 2.25,-1.8120017 1.312,-0.5 0.188,-2.8120004 -0.125,-3.9380004 -0.313,-1.126 -0.125,-1.562 -2.125,-2.312 -2,-0.75 -8.376,-1.8119999 -9.813,-1.8119999 -1.437,0 -2.75,1.1879999 -4.438,3.1879999 -1.688,2 -4.687,5.1240001 -5.562,6.0620021 -0.875,0.938 -0.062,1.5 0.25,2.125 0.312,0.625 0.5,1.5 -0.562,2.812 -1.062,1.312 -2.438,0.062 -3.25,-0.375 -0.812,-0.437 -2.126,1.188 -3.187999,2.75 0,0 -0.75,1.125 -1.375,2 -0.625,0.875 1.687999,6.062 2.249999,6.688 0.562,0.626 0.75,0.5 2.188,-0.188 1.438,-0.688 1.438,-1 2.5,0.375 1.062,1.375 -0.75,2.375 -1.75,3 -1,0.625 0.624,4.813 1.687,6.563 1.063,1.75 3.25,0.312 6.062,-1.188 2.812,-1.5 5.812,-3.188 7.062,-3.938 1.25,-0.75 0.438,-1.562 0.938,-2.625 0.5,-1.063 2,-0.688 2.5,-0.125 0.5,0.563 1.625,-0.125 5.125,-2.25 3.5,-2.125 4.812,-2.812 5.75,-3.375 0.938,-0.563 -0.187,-2.187 -1.312,-5.937 z m -1.063,5.5 c -1.188,0.688 -3.5,2 -4.875,2.75 -1.375,0.75 -2.187,1.313 -2.937,1.188 -0.75,-0.125 -2.062,-0.562 -3.5,0.375 -1.438,0.937 -1.25,2.938 -2.188,3.438 -0.938,0.5 -5.562,2.688 -7.5,3.562 -1.938,0.874 -2.75,1.188 -3.125,0.312 -0.375,-0.876 -1.188,-2.75 -0.625,-3.312 0.563,-0.562 2.375,-2.125 1.75,-4.125 -0.625,-2 -2.75,-2.5 -4.188,-2 -0.845,0.294 -1.125,0.438 -1.562,-0.375 -0.437,-0.813 -1.937999,-2.938 -1.125,-3.938 0.813,-1 2.062,-3.5 2.75,-3.062 0.688,0.438 2.438,0.625 3.625,-0.062 1.187,-0.687 2.312,-2.25 2.062,-3.562 -0.25,-1.312 -0.562,-2.188 -0.125,-2.625 0.437,-0.437 3.5,-3.4380021 4.812,-4.8750021 1.312,-1.437 1.438,-2.938 3.625,-2.688 2.187,0.25 7.25,1.188 8,1.562 0.75,0.374 1.188,0.5 1.188,1.188 0,0.688 0.875,1.375 0.375,1.75 -0.5,0.375 -1.812,0.875 -2.062,2.1880021 -0.25,1.313 -0.188,2.812 0.812,3.5 1,0.688 2,1.062 2.375,0.938 0.375,-0.124 0.75,-0.312 0.938,0.188 0.188,0.5 1.062,3.75 1.562,5.125 0.5,1.375 1.126,1.873 -0.062,2.56 z m -11.375,-11.354 c -2.583,2 -6.792,4.709 -8.583,6 -1.792,1.292 -5.042,2.459 -6.708,3 -1.667,0.542 -1.792,1.167 -1.583,1.5 0.208,0.334 0.854,-0.341 1.917,-0.541 2.208,-0.417 6.167,-2.875 9.583,-5 3.417,-2.125 5.417,-3.917 7.583,-5.584 2.167,-1.6660021 2.208,-1.6250021 1.875,-2.0410021 -0.334,-0.417 -1.501,0.6660004 -4.084,2.6660021 z"
   id="path3"
   inkscape:connector-curvature="0" />
<g
   id="g5"
   transform="translate(0,2.9960093)">
</g>
<g
   id="g7"
   transform="translate(0,2.9960093)">
</g>
<g
   id="g9"
   transform="translate(0,2.9960093)">
</g>
<g
   id="g11"
   transform="translate(0,2.9960093)">
</g>
<g
   id="g13"
   transform="translate(0,2.9960093)">
</g>
<g
   id="g15"
   transform="translate(0,2.9960093)">
</g>
<g
   id="g17"
   transform="translate(0,2.9960093)">
</g>
<g
   id="g19"
   transform="translate(0,2.9960093)">
</g>
<g
   id="g21"
   transform="translate(0,2.9960093)">
</g>
<g
   id="g23"
   transform="translate(0,2.9960093)">
</g>
<g
   id="g25"
   transform="translate(0,2.9960093)">
</g>
<g
   id="g27"
   transform="translate(0,2.9960093)">
</g>
<g
   id="g29"
   transform="translate(0,2.9960093)">
</g>
<g
   id="g31"
   transform="translate(0,2.9960093)">
</g>
<g
   id="g33"
   transform="translate(0,2.9960093)">
</g>
<flowRoot
   xml:space="preserve"
   id="flowRoot3016"
   style="font-size:40px;font-style:normal;font-variant:normal;font-weight:bold;font-stretch:normal;line-height:125%;letter-spacing:0px;word-spacing:0px;fill:#000000;fill-opacity:1;stroke:none;font-family:Arial;-inkscape-font-specification:Arial Bold"
   transform="translate(21.489447,-2.243441)"><flowRegion
     id="flowRegion3018"><rect
       id="rect3020"
       width="16.688305"
       height="41.872475"
       x="-22.301645"
       y="-1.3654069" /></flowRegion><flowPara
     id="flowPara3022">{</flowPara></flowRoot><text
   xml:space="preserve"
   style="font-size:40px;font-style:normal;font-variant:normal;font-weight:bold;font-stretch:normal;line-height:125%;letter-spacing:0px;word-spacing:0px;fill:#000000;fill-opacity:1;stroke:none;font-family:Arial;-inkscape-font-specification:Arial Bold"
   x="41.716301"
   y="29.82139"
   id="text3024"
   sodipodi:linespacing="125%"><tspan
     sodipodi:role="line"
     id="tspan3026"
     x="41.716301"
     y="29.82139">}</tspan></text>

</svg>